<svg width="220" height="220" viewBox="0 0 220 220" fill="none" xmlns="http://www.w3.org/2000/svg">
<rect x="1" y="1" width="218" height="218" rx="109" fill="#FF00AE"/>
<rect x="1" y="1" width="218" height="218" rx="109" stroke="#C30085" stroke-width="2"/>
<g clip-path="url(#clip0_50_57)">
<path d="M80.9616 62.1833C81.7196 61.4257 82.7474 61 83.8191 61C84.8908 61 85.9186 61.4257 86.6766 62.1833L99.6382 75.145L94.1981 80.5851V81.5753C94.1981 82.3792 93.8788 83.1502 93.3103 83.7187C92.7418 84.2872 91.9708 84.6065 91.1669 84.6065C90.3629 84.6065 89.5919 84.2872 89.0234 83.7187C88.455 83.1502 88.1356 82.3792 88.1356 81.5753V75.0722L83.8191 70.7557L79.5026 75.0722V81.5753C79.5026 82.3792 79.1832 83.1502 78.6148 83.7187C78.0463 84.2872 77.2753 84.6065 76.4713 84.6065C75.6674 84.6065 74.8964 84.2872 74.3279 83.7187C73.7595 83.1502 73.4401 82.3792 73.4401 81.5753V80.5851L68 75.145L80.9616 62.1833ZM122.49 82.6059L122.215 82.8807L116.5 77.1658L131.483 62.1833C132.24 61.4257 133.268 61 134.34 61C135.412 61 136.44 61.4257 137.197 62.1833L152.18 77.1658L146.465 82.8807L146.19 82.6059V84.8814C146.19 85.6853 145.871 86.4563 145.302 87.0248C144.734 87.5933 143.963 87.9126 143.159 87.9126C142.355 87.9126 141.584 87.5933 141.016 87.0248C140.447 86.4563 140.128 85.6853 140.128 84.8814V76.5434L134.34 70.7557L128.552 76.5434V84.8814C128.552 85.6853 128.233 86.4563 127.664 87.0248C127.096 87.5933 126.325 87.9126 125.521 87.9126C124.717 87.9126 123.946 87.5933 123.378 87.0248C122.809 86.4563 122.49 85.6853 122.49 84.8814V82.6059ZM107.233 82.3917C107.99 81.634 109.018 81.2084 110.09 81.2084C111.162 81.2084 112.19 81.634 112.947 82.3917L138.034 107.478L132.319 113.193L130.298 111.172V121.624C130.298 122.696 129.873 123.724 129.115 124.482C128.357 125.24 127.329 125.666 126.257 125.666C125.185 125.666 124.157 125.24 123.399 124.482C122.641 123.724 122.215 122.696 122.215 121.624V103.437C122.215 103.324 122.219 103.213 122.227 103.105L110.09 90.9641L97.9528 103.105C97.9609 103.213 97.965 103.324 97.965 103.437V121.624C97.965 122.696 97.5391 123.724 96.7812 124.482C96.0232 125.24 94.9952 125.666 93.9233 125.666C92.8514 125.666 91.8234 125.24 91.0654 124.482C90.3074 123.724 89.8816 122.696 89.8816 121.624V111.172L87.8608 113.193L82.1459 107.478L107.233 82.3917Z" fill="white"/>
<path d="M110.09 105.458C108.482 105.458 106.94 106.096 105.803 107.233C104.666 108.37 104.027 109.912 104.027 111.52V125.666H116.152V111.52C116.152 109.912 115.514 108.37 114.377 107.233C113.24 106.096 111.698 105.458 110.09 105.458Z" fill="white"/>
</g>
<path d="M87.3644 158L82.6444 151.8V158H79.2244V143.96H82.6444V150.12L87.3244 143.96H91.3444L85.9044 150.84L91.5444 158H87.3644ZM96.5297 143.96V152.36C96.5297 153.2 96.7364 153.847 97.1497 154.3C97.563 154.753 98.1697 154.98 98.9697 154.98C99.7697 154.98 100.383 154.753 100.81 154.3C101.236 153.847 101.45 153.2 101.45 152.36V143.96H104.87V152.34C104.87 153.593 104.603 154.653 104.07 155.52C103.536 156.387 102.816 157.04 101.91 157.48C101.016 157.92 100.016 158.14 98.9097 158.14C97.803 158.14 96.8097 157.927 95.9297 157.5C95.063 157.06 94.3764 156.407 93.8697 155.54C93.363 154.66 93.1097 153.593 93.1097 152.34V143.96H96.5297ZM119.831 158H116.411L110.691 149.34V158H107.271V143.96H110.691L116.411 152.66V143.96H119.831V158ZM125.73 143.96V158H122.31V143.96H125.73ZM135.369 158L132.449 152.7H131.629V158H128.209V143.96H133.949C135.055 143.96 135.995 144.153 136.769 144.54C137.555 144.927 138.142 145.46 138.529 146.14C138.915 146.807 139.109 147.553 139.109 148.38C139.109 149.313 138.842 150.147 138.309 150.88C137.789 151.613 137.015 152.133 135.989 152.44L139.229 158H135.369ZM131.629 150.28H133.749C134.375 150.28 134.842 150.127 135.149 149.82C135.469 149.513 135.629 149.08 135.629 148.52C135.629 147.987 135.469 147.567 135.149 147.26C134.842 146.953 134.375 146.8 133.749 146.8H131.629V150.28Z" fill="white"/>
<defs>
<clipPath id="clip0_50_57">
<rect width="86" height="86" fill="white" transform="translate(66 50)"/>
</clipPath>
</defs>
</svg>
